<svg xmlns="http://www.w3.org/2000/svg" xmlns:xlink="http://www.w3.org/1999/xlink" version="1.1" width="1000" height="1000" viewBox="0 0 1000 1000" xml:space="preserve">
<desc>Created with Fabric.js 3.5.0</desc>
<defs>
</defs>
<rect x="0" y="0" width="100%" height="100%" fill="rgba(102,51,102,0)"/>
<g transform="matrix(5.2288 0 0 5.2288 500.0032 500.0038)" id="467041">
<path style="stroke: rgb(252,0,255); stroke-width: 36; stroke-dasharray: none; stroke-linecap: butt; stroke-dashoffset: 0; stroke-linejoin: miter; stroke-miterlimit: 4; is-custom-font: none; font-file-url: none; fill: none; fill-rule: nonzero; opacity: 1;" vector-effect="non-scaling-stroke" transform=" translate(-79, -78.9999)" d="M 154.685 2.50049 H 154.711 L 154.738 2.49994 C 155.15 2.49126 155.491 2.81853 155.5 3.2304 L 155.5 3.23069 C 155.5 3.24095 155.5 3.25176 155.5 3.26283 L 155.499 3.28886 V 3.3149 V 154.686 C 155.499 155.135 155.135 155.5 154.685 155.5 H 3.31409 C 2.86449 155.5 2.5 155.135 2.5 154.686 V 3.3149 C 2.5 2.86483 2.86465 2.50049 3.31409 2.50049 H 154.685 Z" stroke-linecap="round"/>
</g>
<g transform="matrix(7.8053 0 0 4.1379 499.9981 499.9977)" id="891031">
<path style="stroke: rgb(255,0,230); stroke-width: 25; stroke-dasharray: none; stroke-linecap: butt; stroke-dashoffset: 0; stroke-linejoin: miter; stroke-miterlimit: 4; is-custom-font: none; font-file-url: none; fill: none; fill-rule: nonzero; opacity: 1;" vector-effect="non-scaling-stroke" transform=" translate(-41, -75)" d="M 77.3039 40.7397 L 77.3044 40.7395 C 77.5105 40.6892 77.6582 40.659 77.7589 40.6424 C 77.7984 40.6358 77.8243 40.6325 77.8383 40.6308 C 78.2424 40.6387 78.6452 40.7743 79.1104 41.2171 C 79.3652 41.5085 79.4156 41.6926 79.4286 41.7738 C 79.4416 41.8544 79.4515 42.0385 79.2891 42.3902 C 79.2882 42.3921 79.2873 42.3941 79.2864 42.3961 L 29.9938 146.621 C 29.7894 146.995 29.5841 147.178 29.4082 147.281 C 29.2229 147.39 28.9225 147.497 28.411 147.5 C 28.4013 147.499 28.3478 147.495 28.2357 147.479 C 28.1053 147.461 27.9335 147.432 27.7154 147.391 C 27.2802 147.247 27.0626 147.043 26.9115 146.798 L 26.9099 146.795 C 26.7488 146.534 26.715 146.328 26.7937 146.017 L 26.797 146.003 L 44.7919 73.1664 L 45.7834 69.1533 L 41.7688 70.1389 L 4.70476 79.2386 C 4.69266 79.2403 4.6663 79.2435 4.62314 79.2469 C 4.52594 79.2547 4.38251 79.2606 4.1825 79.2606 C 3.6287 79.2606 3.26527 79.1113 2.95692 78.853 L 2.94864 78.8461 L 2.94029 78.8392 C 2.69813 78.6399 2.62859 78.4953 2.60108 78.4138 C 2.57258 78.3295 2.53511 78.1497 2.60315 77.8057 L 20.9373 3.54183 C 21.0235 3.26773 21.1769 3.04019 21.4735 2.82017 C 21.7428 2.62134 22.0645 2.5 22.5437 2.5 H 52.5048 C 53.0637 2.5 53.4087 2.65805 53.7048 2.93949 L 53.7048 2.93953 C 54.037 3.25531 54.114 3.50041 54.1151 3.7797 C 54.1142 3.78338 54.1003 3.93684 53.927 4.27907 L 53.8644 4.4026 L 53.8159 4.5323 L 38.1972 46.2687 L 36.5409 50.6947 L 41.1317 49.5736 L 77.3039 40.7397 Z" stroke-linecap="round"/>
</g>
</svg>